<?xml version="1.0" encoding="utf-8"?>
<!-- Generator: Adobe Illustrator 18.1.0, SVG Export Plug-In . SVG Version: 6.00 Build 0)  -->
<svg version="1.2" baseProfile="tiny" id="Layer_1" xmlns="http://www.w3.org/2000/svg" xmlns:xlink="http://www.w3.org/1999/xlink"
	 x="0px" y="0px" viewBox="0 0 151.4 50" xml:space="preserve">
<g>
	<path fill="#FFFFFF" d="M15.8,38.3c-7.2,0-10.2-5.4-10.2-11.5C5.6,17.2,11.7,7,22.4,7c7.1,0,10.2,4.9,10.2,11
		C32.5,27.5,26.5,38.3,15.8,38.3z M21.8,10.2c-8,0-12.4,9.6-12.4,16.6c0,4.6,2,8.2,6.8,8.2c7.8,0,12.3-9.7,12.3-16.5
		C28.6,13.9,26.7,10.2,21.8,10.2z"/>
	<path fill="#FFFFFF" d="M51,25l-2.7,12.7h-3.6l2.7-12.8c0.2-1,0.3-1.9,0.3-2.7c0-2.2-0.9-3.5-3.5-3.5c-3.5,0-6.3,3.2-7.2,7.8
		l-2.4,11.1h-3.6l4.6-21.5h3.6l-0.6,2.7c1.7-2,4-3.2,6.7-3.2c4.3,0,6.1,2.4,6.1,6C51.4,22.7,51.3,23.8,51,25z"/>
	<path fill="#FFFFFF" d="M61.4,13.3v24.4h-7.3V13.3h-8.3V7.6h24v5.7H61.4z"/>
	<path fill="#FFFFFF" d="M77.8,22.2c-0.6-0.7-1.5-1.1-2.4-1.1c-2.2,0-3.5,1.5-3.5,4.1v12.5H65V15.6h6.8v2.1c1.3-1.8,2.8-2.6,5.7-2.6
		c1.1,0,2.2,0.3,3,0.7L77.8,22.2z"/>
	<path fill="#FFFFFF" d="M95.4,37.7c-1.4,0-2.4-0.5-2.7-1.8c-1.5,1.5-3.7,2.4-6.3,2.4c-4.1,0-7.4-2.6-7.4-7.3
		c0-4.9,4.2-7.6,10.1-7.6c1.1,0,2.3,0.1,3.5,0.3v-0.7c0-1.9-1.1-2.9-3.5-2.9c-1.8,0-3.4,0.7-4.5,2.3l-4.5-2.5c1.8-3,4.8-4.7,9.9-4.7
		c5.8,0,9.4,2.5,9.4,7.7v11.6c0,0.6,0.4,0.9,1.5,0.9v2.4H95.4z M92.7,28.1c-0.6-0.3-1.2-0.4-2.2-0.4c-2.8,0-4.9,1.2-4.9,3
		c0,1.5,1.2,2.4,2.7,2.4c1.5,0,3.3-0.8,4.4-2.4V28.1z"/>
	<path fill="#FFFFFF" d="M111.9,38.3c-7.4,0-10.5-5.1-10.5-11.3c0-10.1,6.3-20,17.1-20c7.4,0,10.5,5,10.5,11.2
		C129.1,28,123,38.3,111.9,38.3z M117.8,10.9c-7.6,0-11.6,9.2-11.6,15.7c0,4.4,1.9,7.8,6.5,7.8c7.4,0,11.6-9.2,11.6-15.7
		C124.3,14.4,122.5,10.9,117.8,10.9z"/>
	<path fill="#FFFFFF" d="M114.7,30.9l2.9-2.4l5.3,9.2c0,0,7.2-17.8,24.7-18.5c0.1,0-0.6,6.6-0.6,6.6s-18.5,0.3-24.8,20
		C122.2,46,114.7,30.9,114.7,30.9z"/>
	<g>
		<path fill="#FFFFFF" d="M145.7,15.9v0.3h-0.5v1.4h-0.3v-1.4h-0.5v-0.3H145.7z M147.5,17.5l-0.1-1c0-0.1,0-0.3,0-0.5h0
			c0,0.1-0.1,0.3-0.1,0.5l-0.3,0.9h-0.3l-0.3-0.9c0-0.1-0.1-0.3-0.1-0.5h0c0,0.1,0,0.3,0,0.5l-0.1,1h-0.3l0.1-1.6h0.5l0.3,0.8
			c0,0.1,0.1,0.2,0.1,0.4h0c0-0.1,0.1-0.3,0.1-0.4l0.3-0.8h0.5l0.1,1.6H147.5z"/>
	</g>
</g>
</svg>
